<?xml version="1.0" encoding="utf-8"?>
<!-- Generator: Adobe Illustrator 24.2.3, SVG Export Plug-In . SVG Version: 6.00 Build 0)  -->
<svg version="1.1" id="Layer_1" xmlns="http://www.w3.org/2000/svg" xmlns:xlink="http://www.w3.org/1999/xlink" x="0px" y="0px"
	 viewBox="0 0 200 70" style="enable-background:new 0 0 200 70;" xml:space="preserve">
<style type="text/css">
	.st0{fill:url(#SVGID_1_);}
	.st1{fill:url(#SVGID_2_);}
</style>
<linearGradient id="SVGID_1_" gradientUnits="userSpaceOnUse" x1="237.095" y1="84.131" x2="8.062" y2="-0.6713">
	<stop  offset="2.237672e-07" style="stop-color:#E5E5E5"/>
	<stop  offset="1" style="stop-color:#CECECD"/>
</linearGradient>
<path class="st0" d="M171.13,6.27l-2.73-3.07l3.55-3.2h18.31l2.73,3.07l-3.55,3.2H171.13z M192.05,32.53l3.55-3.2l2.27-20.78
	l-2.73-3.06l-3.55,3.2l-2.27,20.78L192.05,32.53z M182.23,70l3.55-3.2l-2.73-3.07h-18.31l-3.55,3.2l2.73,3.07H182.23z M137.67,6.27
	l3.55-3.2L138.48,0h-18.31l-3.55,3.2l2.73,3.07H137.67z M140.28,32.53l3.55-3.2l2.27-20.78l-2.73-3.06l-3.55,3.2l-2.27,20.78
	L140.28,32.53z M130.46,70l3.55-3.2l-2.73-3.07h-18.31l-3.55,3.2l2.73,3.07H130.46z M115.77,38.13l-2.73-3.07l3.55-3.2h18.31
	l2.73,3.07l-3.55,3.2H115.77z M133.96,61.33l2.27-20.78l3.55-3.2l2.73,3.06l-2.27,20.78l-3.55,3.2L133.96,61.33z M85.9,6.27
	l3.55-3.2L86.71,0H68.41l-3.55,3.2l2.73,3.07H85.9z M88.51,32.53l3.55-3.2l2.27-20.78L91.6,5.49l-3.55,3.2l-2.27,20.78L88.51,32.53z
	 M78.69,70l3.55-3.2l-2.73-3.07H61.2l-3.55,3.2L60.38,70H78.69z M36.74,32.53l3.55-3.2l2.27-20.78l-2.73-3.06l-3.55,3.2l-2.27,20.78
	L36.74,32.53z M1,61.45l2.27-20.78l3.55-3.2l2.73,3.06L7.28,61.31l-3.55,3.2L1,61.45z"/>
<linearGradient id="SVGID_2_" gradientUnits="userSpaceOnUse" x1="196.9115" y1="76.9727" x2="-6.0798" y2="4.5234">
	<stop  offset="0" style="stop-color:#3EBBA3"/>
	<stop  offset="1" style="stop-color:#00A9AF"/>
</linearGradient>
<path class="st1" d="M185.84,38.13l3.55-3.2l-2.73-3.07h-18.31l-3.55,3.2l2.73,3.07H185.84z M188.46,64.39l3.55-3.2l2.27-20.78
	l-2.73-3.06l-3.55,3.2l-2.27,20.78L188.46,64.39z M159.04,64.51l3.55-3.2l2.27-20.78l-2.73-3.06l-3.55,3.2l-2.27,20.78L159.04,64.51
	z M162.63,32.65l3.55-3.2l2.27-20.78l-2.73-3.06l-3.55,3.2l-2.27,20.78L162.63,32.65z M107.27,64.51l3.55-3.2l2.27-20.78l-2.73-3.06
	l-3.55,3.2l-2.27,20.78L107.27,64.51z M110.86,32.65l3.55-3.2l2.27-20.78l-2.73-3.06l-3.55,3.2l-2.27,20.78L110.86,32.65z
	 M82.3,38.13l3.55-3.2l-2.73-3.07H64.82l-3.55,3.2L64,38.13H82.3z M84.92,64.39l3.55-3.2l2.27-20.78l-2.73-3.06l-3.55,3.2
	l-2.27,20.78L84.92,64.39z M55.5,64.51l3.55-3.2l2.27-20.78l-2.73-3.06l-3.55,3.2l-2.27,20.78L55.5,64.51z M59.09,32.65l3.55-3.2
	l2.27-20.78l-2.73-3.06l-3.55,3.2l-2.27,20.78L59.09,32.65z M15.82,6.27L13.09,3.2L16.64,0h18.31l2.73,3.07l-3.55,3.2H15.82z
	 M8.61,70l-2.73-3.07l3.55-3.2h18.31l2.73,3.07L26.92,70H8.61z M30.53,38.13l3.55-3.2l-2.73-3.07H13.05l-3.55,3.2l2.73,3.07H30.53z
	 M33.15,64.39l3.55-3.2l2.27-20.78l-2.73-3.06l-3.55,3.2l-2.27,20.78L33.15,64.39z M7.32,32.65l3.55-3.2l2.27-20.78l-2.73-3.06
	l-3.55,3.2L4.59,29.59L7.32,32.65z"/>
</svg>
